<?xml version="1.0" encoding="UTF-8"?>
<svg xmlns="http://www.w3.org/2000/svg" viewBox="0 0 512 512" width="512" height="512">
  <defs>
    <radialGradient id="bg_knowme" cx="50%" cy="50%" r="50%">
      <stop offset="0%" stop-color="#D8BFD8" stop-opacity="0.3"/>
      <stop offset="60%" stop-color="#9370DB" stop-opacity="0.1"/>
      <stop offset="100%" stop-color="#6A0DAD" stop-opacity="0"/>
    </radialGradient>
    <radialGradient id="glow_knowme" cx="50%" cy="45%" r="40%">
      <stop offset="0%" stop-color="#D8BFD8" stop-opacity="0.5"/>
      <stop offset="100%" stop-color="#9370DB" stop-opacity="0"/>
    </radialGradient>
    
  </defs>
  <!-- Background glow -->
  <circle cx="256" cy="256" r="240" fill="url(#bg_knowme)"/>
  <!-- Inner glow -->
  <ellipse cx="256" cy="230" rx="180" ry="160" fill="url(#glow_knowme)" opacity="0.6"/>
  
  <!-- Heart shape -->
  <path d="M256 400 C256 400 100 300 100 200 C100 150 140 120 180 120 
           C220 120 240 150 256 180 C272 150 292 120 332 120 
           C372 120 412 150 412 200 C412 300 256 400 256 400Z"
        fill="#9370DB" opacity="0.35" stroke="#D8BFD8" stroke-width="3"/>
  <path d="M256 370 C256 370 130 285 130 205 C130 165 160 140 190 140 
           C220 140 240 160 256 190 C272 160 292 140 322 140 
           C352 140 382 165 382 205 C382 285 256 370 256 370Z"
        fill="#9370DB" opacity="0.25" stroke="#6A0DAD" stroke-width="2"/>
  <!-- Question mark inside heart -->
  <path d="M240 230 C240 210 250 200 260 200 C270 200 280 210 275 225 C270 240 260 245 260 260"
        stroke="#D8BFD8" stroke-width="7" fill="none" stroke-linecap="round" opacity="0.9"/>
  <circle cx="260" cy="278" r="5" fill="#D8BFD8" opacity="0.9"/>
  <!-- Shine -->
  <ellipse cx="200" cy="180" rx="30" ry="20" fill="white" opacity="0.12" transform="rotate(-20 200 180)"/>
  <circle cx="319.9" cy="261.5" r="4.6" fill="#D8BFD8" opacity="0.34"/>
  <circle cx="355.3" cy="351.8" r="4.8" fill="#D8BFD8" opacity="0.50"/>
  <circle cx="181.6" cy="402.3" r="2.3" fill="#D8BFD8" opacity="0.36"/>
  <circle cx="184.2" cy="304.7" r="2.1" fill="#D8BFD8" opacity="0.42"/>
  <circle cx="184.4" cy="221.4" r="4.4" fill="#D8BFD8" opacity="0.44"/>
  <circle cx="261.8" cy="108.7" r="3.3" fill="#D8BFD8" opacity="0.69"/>
  <circle cx="327.1" cy="198.9" r="4.3" fill="#D8BFD8" opacity="0.67"/>
</svg>